<svg width="52" height="47" viewBox="0 0 52 47" fill="none" xmlns="http://www.w3.org/2000/svg">
<path d="M20.6652 19.5436C18.5259 17.4047 17.7271 14.2652 18.581 11.3553C18.7279 10.8688 19.2329 10.5934 19.7195 10.7311C20.2061 10.8779 20.4816 11.3828 20.3438 11.8693C19.6736 14.1275 20.2979 16.5693 21.9598 18.24C23.1717 19.4518 24.7877 20.1219 26.5046 20.1219C28.2216 20.1219 29.8375 19.4518 31.0494 18.24C32.2614 17.0283 32.9316 15.4127 32.9316 13.6961C32.9316 11.9795 32.2614 10.3639 31.0494 9.15216C29.3784 7.48145 26.9361 6.86641 24.6775 7.53653C24.1909 7.68341 23.6767 7.39884 23.539 6.92149C23.3921 6.43497 23.6767 5.92091 24.1542 5.78321C27.0647 4.92032 30.2047 5.71895 32.344 7.867C33.9049 9.42755 34.7679 11.5022 34.7679 13.7053C34.7679 15.9084 33.9049 17.983 32.344 19.5436C30.7832 21.1041 28.7082 21.967 26.5046 21.967C24.3011 21.967 22.226 21.1041 20.6652 19.5436Z" fill="#6CEEC7"/>
<path d="M21.9505 9.17968C21.7669 9.36328 21.5374 9.4459 21.2986 9.4459C21.0599 9.4459 20.8304 9.3541 20.6468 9.17968C20.2887 8.82168 20.2887 8.24336 20.6468 7.88535L20.6651 7.86699C21.0232 7.50898 21.6016 7.50898 21.9597 7.86699C22.3178 8.225 22.3178 8.80332 21.9597 9.16133L21.9505 9.17968Z" fill="#6CEEC7"/>
<path d="M12.3927 28.0256C12.8701 27.8695 13.3934 28.1266 13.5495 28.6131C13.7056 29.0904 13.4485 29.6137 12.9619 29.7697C7.86618 31.4496 4.82711 33.9557 4.82711 36.4893C4.82711 38.6281 7.03067 40.7945 10.8869 42.4285C15.0461 44.191 20.5825 45.1641 26.4954 45.1641C32.4083 45.1641 37.9539 44.191 42.1039 42.4285C45.951 40.7945 48.1637 38.6281 48.1637 36.4893C48.1637 34.6992 46.6212 32.8816 43.8117 31.367C40.9012 29.7973 36.7878 28.6498 32.2247 28.1357L27.2299 34.534C27.0555 34.7543 26.7892 34.8828 26.5046 34.8828C26.22 34.8828 25.9537 34.7543 25.7793 34.534L23.2635 31.3119C17.47 31.8168 14.385 33.5242 14.385 34.5891C14.385 35.1123 15.2205 36.0027 17.571 36.783C19.9398 37.5725 23.1074 38.0039 26.4862 38.0039C29.865 38.0039 33.0326 37.5725 35.4014 36.783C37.7519 36.0027 38.5874 35.1123 38.5874 34.5891C38.5874 34.1117 37.9355 33.5059 36.8521 32.9734C36.393 32.7531 36.2094 32.2023 36.4298 31.7434C36.6501 31.2844 37.201 31.1008 37.6601 31.3211C39.9463 32.441 40.4237 33.7078 40.4237 34.5799C40.4237 38.0314 33.4091 39.8307 26.477 39.8307C19.545 39.8307 12.5304 38.0223 12.5304 34.5799C12.5304 31.725 17.2956 30.1645 21.9139 29.5953L16.001 22.0129L15.9918 22.0037C14.0545 19.6078 12.9803 16.5969 12.9803 13.5033C12.9986 6.05859 19.0584 0 26.5138 0C33.96 0 40.0197 6.05859 40.0197 13.5033C40.0197 16.5969 38.9455 19.617 36.999 22.0129C36.9807 22.0313 36.9715 22.0588 36.9531 22.0771L33.5468 26.4375C37.8988 27.0342 41.8101 28.1908 44.6839 29.7422C48.1637 31.624 50 33.9557 50 36.4893C50 39.4451 47.4567 42.1531 42.8293 44.1176C38.4497 45.9719 32.647 47 26.4954 47C20.3438 47 14.5411 45.9719 10.1707 44.1176C5.54327 42.1531 3 39.4451 3 36.4893C3 33.0744 6.42469 29.99 12.3927 28.0256ZM35.4382 21.0307C35.4565 20.9939 35.4841 20.9572 35.5116 20.9297C37.2286 18.8459 38.1834 16.2113 38.1834 13.5033C38.1834 7.06836 32.9408 1.83594 26.5138 1.83594C20.0776 1.83594 14.8349 7.06836 14.8349 13.5033C14.8349 16.1838 15.7623 18.8 17.4517 20.8654C17.4608 20.8838 17.47 20.893 17.4884 20.9113L26.5046 32.4686L35.4382 21.0307Z" fill="white"/>
<path d="M16.5978 26.924L16.6253 26.9149C17.1211 26.8139 17.6077 27.1352 17.7087 27.6309C17.8097 28.1266 17.4884 28.6131 16.9926 28.7141L16.965 28.7233C16.9008 28.7324 16.8457 28.7416 16.7814 28.7416C16.3499 28.7416 15.9734 28.4387 15.8816 28.0072C15.7806 27.5115 16.102 27.025 16.5978 26.924Z" fill="#6CEEC7"/>
<path d="M34.3457 32.0371C34.2722 32.0371 34.1987 32.028 34.1253 32.0096C33.6479 31.8903 33.3449 31.4221 33.4459 30.9356C33.5469 30.4399 34.0335 30.1186 34.5293 30.2195C34.5476 30.2195 34.5752 30.2287 34.5936 30.2379C35.0802 30.3756 35.374 30.8713 35.2363 31.367C35.1169 31.7709 34.7496 32.0371 34.3457 32.0371Z" fill="#6CEEC7"/>
</svg>
