<svg width="52" height="47" viewBox="0 0 52 47" fill="none" xmlns="http://www.w3.org/2000/svg">
<path d="M48.0163 5.06773C47.7673 4.31763 47.1218 3.77793 46.338 3.65901L43.9312 3.31141L42.8523 1.14344C42.5018 0.439081 41.7826 0 40.9895 0C40.1872 0 39.4772 0.439081 39.1268 1.15259L38.0479 3.32055L35.641 3.66816C34.848 3.77793 34.2025 4.31763 33.9627 5.07688C33.7138 5.82698 33.9166 6.64111 34.4884 7.18996L36.222 8.8731L35.807 11.2515C35.6687 12.029 35.9915 12.8065 36.637 13.2731C37.2825 13.7396 38.1216 13.7945 38.8317 13.4286L40.9895 12.3034L43.1473 13.4286C43.4516 13.5841 43.7836 13.6664 44.1156 13.6664C44.5582 13.6664 44.9732 13.5292 45.3421 13.2731C45.9876 12.8065 46.3011 12.029 46.172 11.2515L45.757 8.8731L47.4907 7.18996C48.0624 6.63196 48.2653 5.82698 48.0163 5.06773ZM46.1259 5.79039L44.217 7.63819C43.8574 7.98579 43.7006 8.47976 43.7836 8.96458L44.2355 11.5716C44.2355 11.5899 44.2447 11.6448 44.1894 11.6905C44.1248 11.7363 44.0787 11.7088 44.0603 11.6997L41.6996 10.4648C41.4875 10.355 41.2385 10.291 40.9987 10.291C40.759 10.291 40.51 10.355 40.2979 10.4648L37.9188 11.7088C37.9003 11.718 37.8542 11.7454 37.7897 11.6997C37.7251 11.654 37.7343 11.5991 37.7435 11.5808L38.1954 8.97373C38.2784 8.48891 38.1216 7.99494 37.762 7.64733L35.8531 5.79953C35.8347 5.78124 35.7978 5.74465 35.8255 5.67147C35.8439 5.59829 35.9085 5.58914 35.9269 5.58914L38.5643 5.20494C39.053 5.13176 39.4864 4.8299 39.7077 4.38167L40.8881 2.00331C40.8973 1.98501 40.925 1.93928 40.9987 1.93928C41.0725 1.93928 41.1002 1.98501 41.1094 2.00331L42.2897 4.38167C42.5111 4.82075 42.9352 5.13176 43.424 5.20494L46.0613 5.58914C46.0798 5.58914 46.1351 5.59829 46.1628 5.67147C46.1812 5.74465 46.1351 5.78124 46.1259 5.79039Z" fill="#6CEEC7"/>
<path d="M18.0465 23.7927C17.7975 23.0426 17.152 22.5029 16.3682 22.384L13.9614 22.0364L12.8825 19.8684C12.5321 19.1549 11.8128 18.7159 11.0105 18.7159C10.2082 18.7159 9.49818 19.1549 9.14777 19.8684L8.06885 22.0364L5.66204 22.384C4.86899 22.4938 4.22349 23.0335 3.98373 23.7927C3.73475 24.5428 3.93762 25.357 4.50935 25.9058L6.25222 27.589L5.83725 29.9673C5.69893 30.7449 6.02168 31.5224 6.66718 31.9889C7.02682 32.245 7.45101 32.3823 7.89364 32.3823C8.22562 32.3823 8.56681 32.2999 8.8619 32.1444L11.0197 31.0193L13.1776 32.1444C13.8876 32.5103 14.7268 32.4554 15.3723 31.9889C16.0178 31.5224 16.3313 30.754 16.2022 29.9673L15.7872 27.589L17.5301 25.9058C18.0926 25.357 18.2955 24.5428 18.0465 23.7927ZM16.1561 24.5154L14.2473 26.3632C13.8876 26.7108 13.7308 27.2048 13.8138 27.6896L14.2657 30.2966C14.2657 30.3149 14.2749 30.3698 14.2196 30.4155C14.155 30.4613 14.1089 30.4338 14.0905 30.4247L11.7298 29.1898C11.2964 28.9611 10.7523 28.9611 10.3189 29.1898L7.95819 30.4247C7.93975 30.4338 7.89364 30.4613 7.82909 30.4155C7.76454 30.3698 7.77376 30.3149 7.78298 30.2966L8.23484 27.6896C8.31783 27.2048 8.16107 26.7016 7.80143 26.3632L5.87413 24.5154C5.85569 24.4971 5.81881 24.4605 5.84647 24.3873C5.86491 24.3141 5.92946 24.305 5.94791 24.305L8.58525 23.9208C9.07399 23.8476 9.5074 23.5457 9.72872 23.0975L10.9091 20.7192C10.9183 20.7009 10.946 20.6551 11.0197 20.6551C11.0935 20.6551 11.1212 20.7009 11.1304 20.7192L12.3107 23.0975C12.5321 23.5366 12.9562 23.8476 13.445 23.9208L16.0823 24.305C16.1008 24.305 16.1561 24.3141 16.1838 24.3873C16.2022 24.4605 16.1653 24.5062 16.1561 24.5154Z" fill="white"/>
<path d="M33.0314 14.8007C32.7824 14.0506 32.1369 13.5109 31.3531 13.392L28.9462 13.0444L27.8673 10.8764C27.5169 10.1629 26.7976 9.72382 26.0046 9.72382C25.2023 9.72382 24.4923 10.1629 24.1326 10.8764L23.0537 13.0444L20.6469 13.392C19.8539 13.5017 19.2084 14.0414 18.9686 14.8007C18.7196 15.5508 18.9225 16.3649 19.4942 16.9138L21.2371 18.5969L20.8221 20.9753C20.6838 21.7528 21.0065 22.5304 21.652 22.9969C22.0117 23.253 22.4359 23.3902 22.8785 23.3902C23.2105 23.3902 23.5517 23.3079 23.8468 23.1524L26.0046 22.0272L28.1624 23.1524C28.8725 23.5183 29.7116 23.4634 30.3571 22.9969C31.0026 22.5304 31.3162 21.762 31.1871 20.9753L30.7721 18.5969L32.515 16.9138C33.0775 16.3649 33.2804 15.5508 33.0314 14.8007ZM31.141 15.5233L29.2321 17.3711C28.8725 17.7188 28.7157 18.2127 28.7987 18.6975L29.2506 21.3046C29.2506 21.3229 29.2598 21.3778 29.2045 21.4235C29.1399 21.4692 29.0938 21.4418 29.0754 21.4327L26.7146 20.1977C26.5026 20.088 26.2536 20.0239 26.0138 20.0239C25.7741 20.0239 25.5251 20.0788 25.313 20.1977L22.9523 21.4327C22.9338 21.4418 22.8877 21.4692 22.8232 21.4235C22.7586 21.3778 22.7678 21.3229 22.7771 21.3046L23.2289 18.6975C23.3119 18.2127 23.1459 17.7096 22.7955 17.3711L20.8867 15.5233C20.8682 15.5051 20.8313 15.4685 20.859 15.3953C20.8867 15.3221 20.942 15.313 20.9604 15.313L23.5978 14.9288C24.0865 14.8556 24.5199 14.5537 24.732 14.1055L25.9124 11.7271C25.9216 11.7088 25.9493 11.6631 26.023 11.6631C26.0968 11.6631 26.1245 11.7088 26.1337 11.7271L27.314 14.1055C27.5354 14.5446 27.9596 14.8556 28.4483 14.9288L31.0856 15.313C31.1041 15.313 31.1594 15.3221 31.1871 15.3953C31.1963 15.4685 31.1502 15.5051 31.141 15.5233Z" fill="white"/>
<path d="M50.5153 41.6761H46.3011V29.8575C46.3011 29.3178 45.8585 28.8879 45.3236 28.8879C44.7888 28.8879 44.3462 29.327 44.3462 29.8575V41.6761H37.6329V18.6244H44.3462V21.4784C44.3462 22.0181 44.7888 22.448 45.3236 22.448C45.8585 22.448 46.3011 22.0089 46.3011 21.4784V18.1487C46.3011 17.3346 45.6372 16.6759 44.8165 16.6759H37.1442C36.3235 16.6759 35.6595 17.3346 35.6595 18.1487V41.6761H31.307V40.6242C31.307 40.0845 30.8643 39.6545 30.3295 39.6545C29.7946 39.6545 29.352 40.0936 29.352 40.6242V41.6761H22.6388V28.092H29.352V32.2359C29.352 32.7756 29.7946 33.2055 30.3295 33.2055C30.8643 33.2055 31.307 32.7664 31.307 32.2359V27.6164C31.307 26.8022 30.643 26.1436 29.8223 26.1436H22.1592C21.3385 26.1436 20.6746 26.8022 20.6746 27.6164V41.667H16.322V35.7943C16.322 34.9801 15.6581 34.3215 14.8374 34.3215H7.18354C6.36283 34.3215 5.69888 34.9801 5.69888 35.7943V41.667H1.48466C0.663948 41.667 0 42.3256 0 43.1397V45.5272C0 46.3414 0.663948 47 1.48466 47H50.5153C51.336 47 52 46.3414 52 45.5272V43.1397C52 42.3347 51.336 41.6761 50.5153 41.6761ZM7.65384 36.2791H14.3671V41.6761H7.65384V36.2791ZM50.0358 45.0607H1.96418V43.6245H50.045V45.0607H50.0358Z" fill="white"/>
<path d="M30.5417 35.5839L30.514 35.5747C30.016 35.4741 29.5273 35.7943 29.4259 36.2882C29.3244 36.7822 29.6472 37.267 30.1451 37.3677L30.1728 37.3768C30.2374 37.3859 30.2927 37.3951 30.3572 37.3951C30.7906 37.3951 31.1687 37.0932 31.2609 36.6633C31.3624 36.1693 31.0396 35.6845 30.5417 35.5839Z" fill="#6CEEC7"/>
<path d="M45.5265 24.6617L45.4989 24.6526C45.0009 24.552 44.5122 24.8721 44.4107 25.3661C44.3093 25.8601 44.632 26.3449 45.13 26.4455L45.1577 26.4546C45.2222 26.4638 45.2776 26.4729 45.3421 26.4729C45.7755 26.4729 46.1536 26.1711 46.2458 25.7411C46.3472 25.2472 46.0245 24.7624 45.5265 24.6617Z" fill="#6CEEC7"/>
</svg>
