<svg width="52" height="47" viewBox="0 0 52 47" fill="none" xmlns="http://www.w3.org/2000/svg">
<g clip-path="url(#clip0)">
<path d="M19.7061 13.081H29.3193C29.812 13.081 30.2152 12.6693 30.2152 12.1662C30.2152 11.6631 29.812 11.2515 29.3193 11.2515H19.7061C19.2134 11.2515 18.8102 11.6631 18.8102 12.1662C18.8012 12.6693 19.2044 13.081 19.7061 13.081Z" fill="#6CEEC7"/>
<path d="M30.7081 18.8347H19.7062C19.2135 18.8347 18.8103 19.2464 18.8103 19.7495C18.8103 20.2526 19.2135 20.6643 19.7062 20.6643H30.7081C31.2008 20.6643 31.604 20.2526 31.604 19.7495C31.604 19.2464 31.2008 18.8347 30.7081 18.8347Z" fill="white"/>
<path d="M33.799 26.4272H19.7062C19.2135 26.4272 18.8103 26.8389 18.8103 27.342C18.8103 27.8451 19.2135 28.2567 19.7062 28.2567H33.799C34.2917 28.2567 34.6949 27.8451 34.6949 27.342C34.6949 26.8389 34.3007 26.4272 33.799 26.4272Z" fill="white"/>
<path d="M33.799 34.0288H19.7062C19.2135 34.0288 18.8103 34.4404 18.8103 34.9436C18.8103 35.4467 19.2135 35.8583 19.7062 35.8583H33.799C34.2917 35.8583 34.6949 35.4467 34.6949 34.9436C34.7038 34.4313 34.3007 34.0288 33.799 34.0288Z" fill="white"/>
<path d="M13.9903 30.2966C13.4975 30.2966 13.0944 30.7082 13.0944 31.2114C13.0944 31.7145 13.4975 32.1261 13.9903 32.1261C14.483 32.1261 14.8862 31.7145 14.8862 31.2114C14.8862 30.7082 14.483 30.2966 13.9903 30.2966Z" fill="#6CEEC7"/>
<path d="M33.7721 18.8347C33.2794 18.8347 32.8762 19.2464 32.8762 19.7495C32.8762 20.2526 33.2794 20.6643 33.7721 20.6643C34.2649 20.6643 34.668 20.2526 34.668 19.7495C34.677 19.2464 34.2738 18.8347 33.7721 18.8347Z" fill="#6CEEC7"/>
<path d="M9.89592 14.1512C9.40316 14.1512 9 14.5629 9 15.066C9 15.5691 9.40316 15.9807 9.89592 15.9807C10.3887 15.9807 10.7918 15.5691 10.7918 15.066C10.8008 14.5629 10.3976 14.1512 9.89592 14.1512Z" fill="#6CEEC7"/>
<path d="M41.9518 8.27851L41.9428 8.26937C41.9338 8.26022 41.9338 8.26022 41.9249 8.25107L41.6292 7.92176L35.7341 1.35383C35.0801 0.622032 34.2111 0.164656 33.2614 0.0365901C33.2524 0.0365901 33.2345 0.0365901 33.2255 0.0274426C33.0643 0.00914753 32.903 0 32.7328 0H16.4092C14.5816 0 13.0943 1.51849 13.0943 3.39373V5.04029H11.9565C10.326 5.04029 9 6.39412 9 8.05897V11.3704C9 11.8735 9.40316 12.2851 9.89592 12.2851C10.3887 12.2851 10.7918 11.8735 10.7918 11.3704V8.05897C10.7918 7.4095 11.3115 6.87894 11.9476 6.87894H13.0854V27.5066C13.0854 27.9914 13.4437 28.4214 13.9275 28.458C14.4472 28.4946 14.8862 28.0646 14.8862 27.5432V3.39373C14.8862 2.53387 15.5671 1.83865 16.4092 1.83865H31.9713V8.77248C31.9713 10.1538 33.0643 11.2698 34.4171 11.2698H41.1992V39.1606C41.1992 40.0204 40.5183 40.7157 39.6761 40.7157H16.4092C15.5671 40.7157 14.8862 40.0204 14.8862 39.1606V34.9253C14.8862 34.4404 14.5278 34.0105 14.044 33.9739C13.5244 33.9373 13.0854 34.3581 13.0854 34.8887V39.1606C13.0854 41.0358 14.5726 42.5543 16.4092 42.5543H35.313V43.9905C35.313 44.6399 34.7934 45.1705 34.1573 45.1705H13.5154C12.0103 45.1705 10.8008 43.9264 10.8008 42.3988V18.8256C10.8008 18.3225 10.3976 17.9109 9.90487 17.9109C9.41212 17.9109 9.00896 18.3225 9.00896 18.8256V42.3896C9.00896 44.9327 11.0337 47 13.5244 47H34.1663C35.7968 47 37.1228 45.6462 37.1228 43.9813V42.5452H39.6851C41.5217 42.5452 43.0089 41.0267 43.0089 39.1514V11.0685C43 10.0348 42.6237 9.04691 41.9518 8.27851ZM34.4171 9.4311C34.0587 9.4311 33.7721 9.13838 33.7721 8.77248V2.09478C34.005 2.22285 34.229 2.3875 34.4082 2.58875L40.1151 8.95543L40.5452 9.4311H34.4171V9.4311Z" fill="white"/>
</g>
<defs>
<clipPath id="clip0">
<rect width="34" height="47" fill="white" transform="translate(9)"/>
</clipPath>
</defs>
</svg>
