<svg width="52" height="47" viewBox="0 0 52 47" fill="none" xmlns="http://www.w3.org/2000/svg">
<g clip-path="url(#clip0)">
<path d="M13.7335 17.8379C13.911 17.6611 14.0044 17.4191 14.0044 17.1772C14.0044 16.9353 13.9017 16.6933 13.7335 16.5166C13.556 16.3398 13.3131 16.2467 13.0702 16.2467C12.818 16.2467 12.5844 16.3491 12.4069 16.5166C12.2294 16.6933 12.136 16.9353 12.136 17.1772C12.136 17.4191 12.2388 17.6611 12.4069 17.8379C12.5844 18.0147 12.8273 18.1077 13.0702 18.1077C13.3131 18.117 13.556 18.0147 13.7335 17.8379Z" fill="#6CEEC7"/>
<path d="M32.8009 45.1297C32.558 45.1297 32.3151 45.232 32.1376 45.3995C31.9601 45.5763 31.8667 45.8182 31.8667 46.0602C31.8667 46.3021 31.9695 46.544 32.1376 46.7208C32.3151 46.8976 32.558 46.9907 32.8009 46.9907C33.0438 46.9907 33.2867 46.8883 33.4642 46.7208C33.6417 46.544 33.7351 46.3021 33.7351 46.0602C33.7351 45.8182 33.6324 45.5763 33.4642 45.3995C33.2867 45.232 33.0438 45.1297 32.8009 45.1297Z" fill="#6CEEC7"/>
<path d="M28.8397 11.4173C28.5968 11.4173 28.3539 11.5197 28.1764 11.6872C27.9989 11.864 27.9055 12.1059 27.9055 12.3478C27.9055 12.5898 28.0083 12.8317 28.1764 13.0085C28.3539 13.1853 28.5875 13.2783 28.8397 13.2783C29.0826 13.2783 29.3255 13.176 29.503 13.0085C29.6805 12.8317 29.7739 12.5898 29.7739 12.3478C29.7739 12.1059 29.6712 11.864 29.503 11.6872C29.3255 11.5197 29.0826 11.4173 28.8397 11.4173Z" fill="#6CEEC7"/>
<path d="M45.2449 23.7L49.8599 15.9303C49.9907 15.707 50.0374 15.4371 49.9627 15.1859C49.8412 14.7765 49.4675 14.5066 49.0565 14.5066H38.9856C38.9109 14.5066 38.8361 14.5159 38.7708 14.5345V7.11837C38.7708 6.6066 38.3504 6.18787 37.8365 6.18787H16.2655H14.9015L12.6221 6.19717C12.3511 6.19717 12.1269 6.42049 12.1269 6.69034V7.23934V8.19776V12.5339C12.1269 13.0271 12.5006 13.4644 13.0051 13.5017C13.5469 13.5389 14.0047 13.1109 14.0047 12.5712V8.15124H17.3772V40.0863H14.0047V22.3601C14.0047 21.8669 13.631 21.4296 13.1265 21.3924C12.5847 21.3552 12.1269 21.7832 12.1269 22.3229V40.077H9.88481C9.49243 40.077 9.14677 40.3189 9.00664 40.6818L7.35308 45.1297H2.97161C2.47647 45.1297 2.03739 45.5019 2.00002 46.0043C1.96266 46.544 2.40174 47 2.93424 47H28.8681C29.3632 47 29.8023 46.6278 29.8397 46.1253C29.877 45.5856 29.4379 45.1297 28.9054 45.1297H24.0288L22.3753 40.6911C22.2351 40.3282 21.8895 40.0863 21.4971 40.0863H19.255V24.491H28.9148V31.935C28.9148 32.2793 29.0923 32.605 29.3912 32.7725C29.5407 32.8562 29.6995 32.8935 29.8583 32.8935H49.0471C49.3087 32.8935 49.5703 32.7911 49.7571 32.605C50.0467 32.2979 50.0935 31.842 49.8786 31.4884L45.2449 23.7ZM20.8432 41.9566L22.0296 45.1297H9.3523L10.5388 41.9566H20.8432ZM19.2737 22.6206V13.2876H25.2153C25.7291 13.2876 26.1495 12.8689 26.1495 12.3571C26.1495 11.8454 25.7291 11.4266 25.2153 11.4266H19.2737V8.05819H36.9023V22.63H19.2737V22.6206ZM30.7926 24.491H35.6411L30.7926 29.6181V24.491ZM32.0257 31.0324L38.3971 24.3049C38.6306 24.1374 38.7801 23.8675 38.7801 23.5605V16.349C38.8455 16.3676 38.9202 16.3769 38.995 16.3769H47.4216L43.3484 23.2348C43.1709 23.5325 43.1709 23.8954 43.3484 24.1839L47.4216 31.0418H32.0257V31.0324Z" fill="white"/>
<path d="M17.405 1.86102V3.18234H13.9951V1.86102H17.405ZM18.3392 0H13.0609C12.5471 0 12.1267 0.418729 12.1267 0.930509V4.12215C12.1267 4.63393 12.5471 5.05266 13.0609 5.05266H18.3392C18.8531 5.05266 19.2735 4.63393 19.2735 4.12215V0.930509C19.2735 0.418729 18.8531 0 18.3392 0Z" fill="#6CEEC7"/>
</g>
<defs>
<clipPath id="clip0">
<rect width="48" height="47" fill="white" transform="translate(2)"/>
</clipPath>
</defs>
</svg>
