<svg width="15" height="9" viewBox="0 0 15 9" fill="none" xmlns="http://www.w3.org/2000/svg">
<path d="M6.67278 0.376639L0.331965 6.99848C0.226776 7.10724 0.143286 7.23664 0.0863103 7.37921C0.0293343 7.52177 -5.79311e-08 7.67469 -5.11801e-08 7.82914C-4.44291e-08 7.98358 0.0293343 8.1365 0.0863104 8.27907C0.143286 8.42163 0.226776 8.55103 0.331965 8.65979C0.542236 8.87769 0.826676 9 1.12316 9C1.41965 9 1.70409 8.87769 1.91436 8.65979L7.5257 2.8686L13.0809 8.65979C13.2912 8.87769 13.5756 9 13.8721 9C14.1686 9 14.453 8.87769 14.6633 8.65979C14.7694 8.55144 14.8537 8.42222 14.9115 8.27964C14.9693 8.13705 14.9994 7.98393 15 7.82914C14.9994 7.67434 14.9693 7.52122 14.9115 7.37863C14.8537 7.23605 14.7694 7.10683 14.6633 6.99848L8.32251 0.376639C8.21742 0.257886 8.08987 0.16311 7.9479 0.0982872C7.80594 0.0334641 7.65263 -1.28818e-06 7.49764 -1.28141e-06C7.34265 -1.27463e-06 7.18935 0.0334641 7.04738 0.0982873C6.90542 0.16311 6.77787 0.257886 6.67278 0.376639Z" fill="white"/>
</svg>
