<svg width="20" height="20" viewBox="0 0 20 20" fill="none" xmlns="http://www.w3.org/2000/svg">
<path d="M14.1667 7.64165C14.0106 7.48644 13.7994 7.39932 13.5792 7.39932C13.3591 7.39932 13.1478 7.48644 12.9917 7.64165L10 10.5916L7.05004 7.64165C6.8939 7.48644 6.68269 7.39932 6.46254 7.39932C6.24238 7.39932 6.03117 7.48644 5.87504 7.64165C5.79693 7.71912 5.73494 7.81129 5.69263 7.91284C5.65032 8.01438 5.62854 8.12331 5.62854 8.23332C5.62854 8.34333 5.65032 8.45225 5.69263 8.5538C5.73494 8.65535 5.79693 8.74751 5.87504 8.82498L9.40837 12.3583C9.48584 12.4364 9.57801 12.4984 9.67956 12.5407C9.78111 12.583 9.89003 12.6048 10 12.6048C10.11 12.6048 10.219 12.583 10.3205 12.5407C10.4221 12.4984 10.5142 12.4364 10.5917 12.3583L14.1667 8.82498C14.2448 8.74751 14.3068 8.65535 14.3491 8.5538C14.3914 8.45225 14.4132 8.34333 14.4132 8.23332C14.4132 8.12331 14.3914 8.01438 14.3491 7.91284C14.3068 7.81129 14.2448 7.71912 14.1667 7.64165Z" fill="#FFFCFC"/>
</svg>
