<svg width="191" height="48" viewBox="0 0 191 48" fill="none" xmlns="http://www.w3.org/2000/svg">
<path d="M59.7481 31.713C59.567 32.1942 59.3859 32.6754 59.3519 33.1679C59.2883 34.1232 59.4283 35.1039 59.6066 36.0592C59.6819 36.5365 59.7775 37.0118 59.873 37.4871C60.1166 38.6986 60.3601 39.9099 60.2687 41.154C60.1541 42.5933 59.6957 43.918 58.3206 44.5676C57.5694 44.9242 56.6145 45.128 55.8124 45.0134C54.3481 44.8223 52.8967 44.4275 51.5089 43.9435C50.1465 43.4595 48.9115 43.625 47.5746 44.0708C40.6227 46.4017 33.5054 47.5481 26.1589 46.7711C22.632 46.4017 19.1561 45.7012 15.7693 44.644C15.4254 44.5365 15.0814 44.4174 14.7365 44.2979C14.06 44.0635 13.3796 43.8278 12.6881 43.676C12.1024 43.5486 11.4276 43.6123 10.8292 43.7524C10.1803 43.9046 9.53945 44.091 8.89946 44.2773C7.93211 44.5588 6.96668 44.8397 5.97818 45.0007C3.32987 45.4337 1.57281 43.9817 1.3309 41.3196C1.19084 39.702 1.45822 38.1353 1.92931 36.6069C2.26035 35.5497 3.20254 34.9893 4.05561 35.244C4.97233 35.5242 5.54529 36.5687 5.36703 37.5877C5.32565 37.8233 5.28268 38.0589 5.23971 38.2946C5.11079 39.0015 4.98188 39.7084 4.89594 40.4153C4.78135 41.3578 5.06146 41.5998 5.97818 41.3578C7.16229 41.0394 8.34639 40.721 9.51776 40.3389C11.3003 39.7657 12.9937 39.944 14.7889 40.4917C17.7428 41.396 20.7476 42.173 23.7779 42.7717C27.483 43.4849 31.2518 43.5614 34.9951 43.1665C38.0508 42.8481 41.0684 42.2494 44.0223 41.3706C44.6045 41.1947 45.1843 41.0023 45.7649 40.8097C46.5301 40.5557 47.2965 40.3014 48.0711 40.0841C49.3444 39.7275 50.6303 39.9313 51.8908 40.2879C52.3034 40.4077 52.7144 40.5307 53.125 40.6534C53.8927 40.883 54.6589 41.1122 55.4304 41.3196C56.5254 41.6253 56.78 41.447 56.6782 40.3389C56.6208 39.7321 56.5053 39.1305 56.3896 38.5275C56.3256 38.1938 56.2615 37.8597 56.2071 37.524C56.0288 36.454 55.8506 35.3841 55.7105 34.3142C55.5485 33.0781 55.9181 31.9388 56.2876 30.8C56.3826 30.5071 56.4776 30.2143 56.5636 29.9199C57.4676 26.812 57.8877 23.6405 57.2893 20.4307C56.971 18.7367 56.4999 17.0554 55.9906 15.3996C55.4813 13.7183 55.736 12.0752 56.0033 10.4194C56.0822 9.93692 56.1695 9.45785 56.2566 8.97969C56.4086 8.14498 56.5602 7.31307 56.6654 6.47087C56.7673 5.66843 56.5126 5.4519 55.6978 5.64295C55.1363 5.77093 54.5828 5.93463 54.0283 6.09859C53.5895 6.22837 53.1501 6.35832 52.7057 6.47087C52.5269 6.51873 52.3481 6.56908 52.1692 6.61946C51.4436 6.82382 50.7164 7.02864 49.981 7.06951C49.1406 7.10772 48.2621 6.91667 47.4345 6.70013C46.3892 6.43164 45.3491 6.13352 44.309 5.83543C42.5368 5.32749 40.7648 4.8196 38.9675 4.4584C34.7277 3.60501 30.4496 3.37575 26.1207 3.91071C21.7535 4.44566 17.5518 5.55379 13.4138 6.91667C12.79 7.12046 12.0515 7.18415 11.4149 7.05677C9.79787 6.72561 8.20633 6.29255 6.62753 5.82127C4.97233 5.32453 4.67949 5.54106 4.97233 7.2733C5.08103 7.92058 5.19394 8.56575 5.30678 9.21053C5.4715 10.1517 5.63608 11.0921 5.7872 12.037C6.00365 13.3871 5.7872 14.6608 5.3161 15.96C4.33572 18.6603 4.29752 21.386 5.32884 24.1118C5.99091 25.8568 6.95857 27.4362 8.1936 28.799C10.0652 30.8752 12.3571 32.3909 15.0563 33.1679C15.9476 33.4226 16.8615 33.5981 17.7754 33.7736C18.2323 33.8613 18.6892 33.9491 19.1434 34.0467C19.1216 34.054 19.0984 34.0622 19.074 34.0708C18.9706 34.1073 18.8469 34.1511 18.7232 34.1614C15.3746 34.5435 12.1024 34.3142 9.03393 32.7858C5.93999 31.2446 3.75003 28.8627 2.28582 25.7421C0.643354 22.2394 0.656086 18.6476 1.85292 15.0812C2.39108 13.4971 2.11326 12.0309 1.83315 10.5526C1.76864 10.2122 1.70402 9.87108 1.6492 9.52778C1.62355 9.36612 1.597 9.20446 1.57044 9.04276C1.33331 7.59919 1.09568 6.15251 1.49642 4.67493C1.94205 3.07006 3.17708 1.96193 4.88321 1.9874C5.93038 2.01094 6.97754 2.24115 8.00462 2.46693C8.08897 2.48548 8.17319 2.50399 8.25726 2.52236C9.25038 2.73889 10.218 3.03184 11.173 3.38848C11.8103 3.63137 12.3673 3.45612 12.9333 3.27802C13.0796 3.23197 13.2265 3.18573 13.3756 3.14648C14.2835 2.9043 15.1875 2.64676 16.0913 2.38929C18.0395 1.83427 19.9869 1.27951 21.9699 0.879271C26.6172 -0.0505392 31.3282 -0.254333 36.0773 0.344312C40.2026 0.866533 44.2132 1.75813 48.1221 3.14648C49.2807 3.5668 50.3247 3.43943 51.4325 3.10827C51.6968 3.02739 51.9618 2.94423 52.2276 2.86084C53.0503 2.60276 53.8802 2.3424 54.7174 2.14025C55.8633 1.86003 57.0347 1.79634 58.1424 2.3313C59.5557 3.01911 60.1413 4.26734 60.2305 5.71938C60.2814 6.72561 60.1413 7.74458 60.0013 8.75081C59.9245 9.30469 59.8171 9.85856 59.7095 10.4135C59.5671 11.1474 59.4244 11.8831 59.3519 12.6229C59.2808 13.2867 59.4413 13.9725 59.5973 14.6393C59.6089 14.689 59.6206 14.7387 59.632 14.7882C59.7879 15.4493 59.9621 16.1073 60.1366 16.7668C60.3186 17.4542 60.5009 18.1431 60.6634 18.8386C60.727 19.0934 60.6124 19.4373 60.4596 19.6538C59.9885 20.3671 59.9886 20.8511 60.6634 21.3606C61.0326 21.6408 61.1217 21.9719 61.1472 22.3923C61.2872 25.3218 60.8289 28.1877 60.0013 30.9898C59.9291 31.2318 59.8386 31.4724 59.7481 31.713Z" fill="white"/>
<path d="M37.4524 19.3608L37.758 21.5007C37.8598 22.1885 38.28 22.5451 38.9421 22.6343L38.9926 22.6419C39.9057 22.7795 40.8306 22.9189 41.7432 23.1565C41.4503 23.2032 41.1575 23.2541 40.8646 23.3051C40.279 23.407 39.6933 23.5089 39.1076 23.5768C38.2163 23.6915 37.8726 23.9717 37.7325 24.8633C37.6543 25.3677 37.5879 25.8662 37.5212 26.3669C37.4903 26.5994 37.4592 26.8325 37.4269 27.0668C37.4142 27.2069 37.3505 27.3343 37.1723 27.4616C37.1341 27.2833 37.1086 27.1177 37.0832 26.9522C37.0433 26.686 37.0064 26.4183 36.9695 26.1496C36.9003 25.6467 36.8307 25.1404 36.7394 24.634C36.6248 23.9844 36.2174 23.6787 35.568 23.5896C34.9484 23.5131 34.3287 23.4141 33.7091 23.315C33.3993 23.2655 33.0895 23.2159 32.7796 23.1692V23.0546C33.238 22.9845 33.6932 22.9177 34.1484 22.8508C34.6036 22.7839 35.0587 22.7171 35.5171 22.647C36.3574 22.5196 36.6503 22.2394 36.7903 21.3988C36.8686 20.8943 36.9349 20.3958 37.0016 19.8951C37.0326 19.6625 37.0636 19.4295 37.0959 19.1952C37.1214 19.0679 37.1596 18.9405 37.3505 18.8004C37.356 18.8279 37.3615 18.8551 37.367 18.8821C37.3995 19.043 37.4306 19.1973 37.4524 19.3608Z" fill="white"/>
<path d="M43.8341 18.0999C43.7945 17.8112 43.7549 17.5225 43.704 17.2337C43.6403 16.8644 43.4111 16.6988 43.0291 16.6478C42.6893 16.6064 42.3549 16.5541 42.0188 16.5016C41.8387 16.4735 41.658 16.4452 41.4758 16.4186V16.3549L43.0037 16.1256C43.4748 16.0619 43.6403 15.9091 43.7167 15.4378C43.7485 15.234 43.774 15.0302 43.7994 14.8264C43.8249 14.6226 43.8504 14.4188 43.8822 14.215C43.8949 14.1514 43.9204 14.0749 44.0223 13.9985C44.0477 14.1004 44.0732 14.2023 44.0859 14.3042C44.1369 14.7118 44.1878 15.1066 44.2514 15.5015C44.3151 15.8836 44.5443 16.0874 44.9135 16.1383C45.4355 16.2148 45.9576 16.2912 46.4796 16.4313C46.3268 16.4554 46.174 16.4808 46.0208 16.5063C45.6889 16.5615 45.3551 16.617 45.0154 16.6606C44.5188 16.7242 44.3278 16.8771 44.2514 17.3738C44.2005 17.7814 44.1496 18.189 44.0859 18.5966C44.0732 18.673 44.0477 18.7367 43.9459 18.8131C43.9232 18.7338 43.9106 18.6443 43.8992 18.5628C43.8977 18.5527 43.8963 18.5427 43.8949 18.5329C43.8737 18.3886 43.8539 18.2443 43.8341 18.0999Z" fill="white"/>
<path d="M128.182 30.8767C128.895 31.2407 129.773 31.4227 130.816 31.4227H132.928C133.102 31.4227 133.25 31.362 133.371 31.2407C133.493 31.1193 133.554 30.972 133.554 30.7987V29.1867C133.554 29.0133 133.493 28.866 133.371 28.7447C133.25 28.6233 133.102 28.5627 132.928 28.5627H131.129C130.503 28.5627 130.06 28.3633 129.799 27.9647C129.556 27.566 129.434 27.0113 129.434 26.3007V20.6587H132.693C132.867 20.6587 133.015 20.598 133.137 20.4767C133.258 20.3553 133.319 20.1993 133.319 20.0087V18.5267C133.319 18.3533 133.258 18.206 133.137 18.0847C133.015 17.9633 132.867 17.9027 132.693 17.9027H129.434V13.5867C129.434 13.4133 129.373 13.266 129.251 13.1447C129.13 13.0233 128.982 12.9627 128.808 12.9627H126.696C126.505 12.9627 126.348 13.0233 126.227 13.1447C126.122 13.266 126.07 13.4133 126.07 13.5867V17.9027H124.01C123.837 17.9027 123.689 17.9633 123.567 18.0847C123.445 18.206 123.385 18.3533 123.385 18.5267V20.0087C123.385 20.1993 123.445 20.3553 123.567 20.4767C123.689 20.598 123.837 20.6587 124.01 20.6587H126.07V26.5607C126.07 27.6353 126.244 28.5367 126.592 29.2647C126.939 29.9753 127.47 30.5127 128.182 30.8767Z" fill="white"/>
<path fill-rule="evenodd" clip-rule="evenodd" d="M78.4323 31.2407C78.554 31.362 78.7017 31.4227 78.8755 31.4227H86.6459C88.0018 31.4227 89.1404 31.1973 90.0617 30.7467C90.983 30.2787 91.6783 29.6373 92.1477 28.8227C92.617 28.008 92.8517 27.0807 92.8517 26.0407C92.8517 25.0353 92.5909 24.1687 92.0694 23.4407C91.5479 22.7127 90.9482 22.1927 90.2703 21.8807C90.6006 21.7073 90.9308 21.4647 91.2611 21.1527C91.6088 20.8407 91.8956 20.442 92.1216 19.9567C92.365 19.454 92.4866 18.8733 92.4866 18.2147C92.4866 17.2267 92.2693 16.36 91.8348 15.6147C91.4176 14.8693 90.7657 14.2887 89.8792 13.8727C88.9926 13.4393 87.8453 13.2227 86.4373 13.2227H78.8755C78.7017 13.2227 78.554 13.2833 78.4323 13.4047C78.3106 13.526 78.2498 13.682 78.2498 13.8727V30.7987C78.2498 30.972 78.3106 31.1193 78.4323 31.2407ZM86.2287 28.6667H81.8742V23.3887H86.2287C87.15 23.3887 87.854 23.64 88.3407 24.1427C88.8448 24.6453 89.0969 25.278 89.0969 26.0407C89.0969 26.7687 88.8535 27.3927 88.3668 27.9127C87.8801 28.4153 87.1674 28.6667 86.2287 28.6667ZM85.9679 20.6847H81.8742V15.9527H85.9679C86.8892 15.9527 87.5759 16.1607 88.0278 16.5767C88.4972 16.9927 88.7319 17.5647 88.7319 18.2927C88.7319 19.0033 88.4972 19.584 88.0278 20.0347C87.5759 20.468 86.8892 20.6847 85.9679 20.6847Z" fill="white"/>
<path fill-rule="evenodd" clip-rule="evenodd" d="M97.064 30.0187C98.1939 31.128 99.7236 31.6827 101.653 31.6827C102.627 31.6827 103.487 31.5613 104.235 31.3187C104.999 31.0587 105.634 30.738 106.138 30.3567C106.642 29.9753 107.025 29.5853 107.285 29.1867C107.563 28.788 107.711 28.45 107.729 28.1727C107.746 28.0167 107.694 27.8867 107.572 27.7827C107.468 27.6787 107.329 27.6267 107.155 27.6267H104.913C104.721 27.6267 104.574 27.6527 104.469 27.7047C104.382 27.7393 104.261 27.8607 104.104 28.0687C104.017 28.19 103.87 28.346 103.661 28.5367C103.452 28.7273 103.183 28.9007 102.853 29.0567C102.522 29.1953 102.114 29.2647 101.627 29.2647C101.036 29.2647 100.523 29.1087 100.089 28.7967C99.6715 28.4847 99.3499 28.0773 99.1239 27.5747C98.9153 27.0547 98.8023 26.4913 98.7849 25.8847V25.6767H107.442C107.633 25.6767 107.789 25.616 107.911 25.4947C108.033 25.3733 108.094 25.226 108.094 25.0527V24.5067C108.094 23.1547 107.85 21.9673 107.364 20.9447C106.877 19.9047 106.155 19.0987 105.199 18.5267C104.243 17.9373 103.061 17.6427 101.653 17.6427C100.384 17.6427 99.2804 17.9027 98.3417 18.4227C97.403 18.9253 96.6642 19.6533 96.1253 20.6067C95.6038 21.5427 95.3083 22.6693 95.2388 23.9867C95.2214 24.1427 95.2127 24.3593 95.2127 24.6367C95.2127 24.8967 95.2214 25.1133 95.2388 25.2867C95.3257 27.332 95.9341 28.9093 97.064 30.0187ZM104.547 23.4927H98.7849V23.4147C98.7849 22.7387 98.8892 22.1493 99.0978 21.6467C99.3238 21.1267 99.6541 20.728 100.089 20.4507C100.523 20.156 101.045 20.0087 101.653 20.0087C102.262 20.0087 102.783 20.156 103.218 20.4507C103.652 20.728 103.983 21.1267 104.209 21.6467C104.435 22.1493 104.547 22.7387 104.547 23.4147V23.4927Z" fill="white"/>
<path d="M115.998 31.6827C114.955 31.6827 114.06 31.5613 113.313 31.3187C112.582 31.076 111.983 30.7727 111.513 30.4087C111.044 30.0447 110.696 29.6807 110.47 29.3167C110.244 28.9527 110.123 28.6493 110.105 28.4067C110.088 28.216 110.14 28.0687 110.262 27.9647C110.401 27.8433 110.549 27.7827 110.705 27.7827H112.765C112.834 27.7827 112.895 27.7913 112.947 27.8087C113 27.826 113.069 27.878 113.156 27.9647C113.382 28.1553 113.617 28.3547 113.86 28.5627C114.121 28.7707 114.425 28.9527 114.773 29.1087C115.12 29.2473 115.555 29.3167 116.076 29.3167C116.754 29.3167 117.319 29.1867 117.771 28.9267C118.241 28.6493 118.475 28.2593 118.475 27.7567C118.475 27.3927 118.371 27.098 118.162 26.8727C117.971 26.6473 117.606 26.448 117.067 26.2747C116.528 26.084 115.764 25.8847 114.773 25.6767C113.799 25.4513 112.991 25.1653 112.348 24.8187C111.705 24.472 111.227 24.0387 110.914 23.5187C110.601 22.9987 110.444 22.392 110.444 21.6987C110.444 21.0227 110.644 20.3813 111.044 19.7747C111.461 19.1507 112.07 18.6393 112.869 18.2407C113.686 17.842 114.694 17.6427 115.894 17.6427C116.833 17.6427 117.65 17.764 118.345 18.0067C119.04 18.232 119.614 18.518 120.066 18.8647C120.535 19.2113 120.892 19.5667 121.135 19.9307C121.378 20.2773 121.509 20.5807 121.526 20.8407C121.543 21.0313 121.491 21.1873 121.37 21.3087C121.248 21.4127 121.109 21.4647 120.952 21.4647H119.023C118.936 21.4647 118.858 21.4473 118.788 21.4127C118.719 21.378 118.649 21.3347 118.58 21.2827C118.388 21.1093 118.18 20.9273 117.954 20.7367C117.728 20.5287 117.45 20.3553 117.119 20.2167C116.807 20.078 116.389 20.0087 115.868 20.0087C115.207 20.0087 114.703 20.156 114.356 20.4507C114.008 20.728 113.834 21.0833 113.834 21.5167C113.834 21.8113 113.912 22.0713 114.069 22.2967C114.243 22.5047 114.581 22.704 115.086 22.8947C115.59 23.0853 116.355 23.2847 117.38 23.4927C118.545 23.7007 119.466 24.0127 120.144 24.4287C120.839 24.8273 121.326 25.2953 121.604 25.8327C121.9 26.3527 122.048 26.9333 122.048 27.5747C122.048 28.3547 121.813 29.0567 121.344 29.6807C120.892 30.3047 120.214 30.7987 119.31 31.1627C118.423 31.5093 117.319 31.6827 115.998 31.6827Z" fill="white"/>
<path fill-rule="evenodd" clip-rule="evenodd" d="M136.806 31.4227C136.632 31.4227 136.484 31.362 136.362 31.2407C136.241 31.1193 136.18 30.972 136.18 30.7987V13.8727C136.18 13.682 136.241 13.526 136.362 13.4047C136.484 13.2833 136.632 13.2227 136.806 13.2227H143.559C145.662 13.2227 147.322 13.708 148.539 14.6787C149.756 15.6493 150.365 17.062 150.365 18.9167C150.365 20.1993 150.043 21.2653 149.4 22.1147C148.774 22.964 147.931 23.5793 146.87 23.9607L150.677 30.5907C150.73 30.6947 150.756 30.79 150.756 30.8767C150.756 31.0327 150.695 31.1627 150.573 31.2667C150.469 31.3707 150.347 31.4227 150.208 31.4227H147.835C147.54 31.4227 147.314 31.3447 147.157 31.1887C147.001 31.0327 146.879 30.8767 146.792 30.7207L143.429 24.5587H139.804V30.7987C139.804 30.972 139.743 31.1193 139.622 31.2407C139.517 31.362 139.37 31.4227 139.178 31.4227H136.806ZM139.804 21.6207H143.481C144.541 21.6207 145.332 21.3867 145.854 20.9187C146.375 20.4333 146.636 19.7573 146.636 18.8907C146.636 18.024 146.375 17.348 145.854 16.8627C145.349 16.36 144.559 16.1087 143.481 16.1087H139.804V21.6207Z" fill="white"/>
<path fill-rule="evenodd" clip-rule="evenodd" d="M154.51 30.0187C155.64 31.128 157.17 31.6827 159.099 31.6827C160.073 31.6827 160.933 31.5613 161.681 31.3187C162.446 31.0587 163.08 30.738 163.584 30.3567C164.088 29.9753 164.471 29.5853 164.732 29.1867C165.01 28.788 165.157 28.45 165.175 28.1727C165.192 28.0167 165.14 27.8867 165.018 27.7827C164.914 27.6787 164.775 27.6267 164.601 27.6267H162.359C162.168 27.6267 162.02 27.6527 161.915 27.7047C161.829 27.7393 161.707 27.8607 161.55 28.0687C161.464 28.19 161.316 28.346 161.107 28.5367C160.899 28.7273 160.629 28.9007 160.299 29.0567C159.969 29.1953 159.56 29.2647 159.073 29.2647C158.482 29.2647 157.969 29.1087 157.535 28.7967C157.118 28.4847 156.796 28.0773 156.57 27.5747C156.362 27.0547 156.249 26.4913 156.231 25.8847V25.6767H164.888C165.079 25.6767 165.236 25.616 165.357 25.4947C165.479 25.3733 165.54 25.226 165.54 25.0527V24.5067C165.54 23.1547 165.297 21.9673 164.81 20.9447C164.323 19.9047 163.602 19.0987 162.646 18.5267C161.689 17.9373 160.507 17.6427 159.099 17.6427C157.83 17.6427 156.727 17.9027 155.788 18.4227C154.849 18.9253 154.11 19.6533 153.572 20.6067C153.05 21.5427 152.755 22.6693 152.685 23.9867C152.668 24.1427 152.659 24.3593 152.659 24.6367C152.659 24.8967 152.668 25.1133 152.685 25.2867C152.772 27.332 153.38 28.9093 154.51 30.0187ZM161.994 23.4927H156.231V23.4147C156.231 22.7387 156.335 22.1493 156.544 21.6467C156.77 21.1267 157.1 20.728 157.535 20.4507C157.969 20.156 158.491 20.0087 159.099 20.0087C159.708 20.0087 160.229 20.156 160.664 20.4507C161.098 20.728 161.429 21.1267 161.655 21.6467C161.881 22.1493 161.994 22.7387 161.994 23.4147V23.4927Z" fill="white"/>
<path d="M173.444 31.6827C172.401 31.6827 171.506 31.5613 170.759 31.3187C170.029 31.076 169.429 30.7727 168.96 30.4087C168.49 30.0447 168.143 29.6807 167.917 29.3167C167.691 28.9527 167.569 28.6493 167.552 28.4067C167.534 28.216 167.586 28.0687 167.708 27.9647C167.847 27.8433 167.995 27.7827 168.151 27.7827H170.211C170.281 27.7827 170.342 27.7913 170.394 27.8087C170.446 27.826 170.515 27.878 170.602 27.9647C170.828 28.1553 171.063 28.3547 171.306 28.5627C171.567 28.7707 171.871 28.9527 172.219 29.1087C172.567 29.2473 173.001 29.3167 173.523 29.3167C174.201 29.3167 174.766 29.1867 175.218 28.9267C175.687 28.6493 175.922 28.2593 175.922 27.7567C175.922 27.3927 175.817 27.098 175.609 26.8727C175.417 26.6473 175.052 26.448 174.514 26.2747C173.975 26.084 173.21 25.8847 172.219 25.6767C171.245 25.4513 170.437 25.1653 169.794 24.8187C169.151 24.472 168.673 24.0387 168.36 23.5187C168.047 22.9987 167.891 22.392 167.891 21.6987C167.891 21.0227 168.09 20.3813 168.49 19.7747C168.907 19.1507 169.516 18.6393 170.315 18.2407C171.132 17.842 172.141 17.6427 173.34 17.6427C174.279 17.6427 175.096 17.764 175.791 18.0067C176.487 18.232 177.06 18.518 177.512 18.8647C177.981 19.2113 178.338 19.5667 178.581 19.9307C178.825 20.2773 178.955 20.5807 178.972 20.8407C178.99 21.0313 178.938 21.1873 178.816 21.3087C178.694 21.4127 178.555 21.4647 178.399 21.4647H176.469C176.382 21.4647 176.304 21.4473 176.234 21.4127C176.165 21.378 176.095 21.3347 176.026 21.2827C175.835 21.1093 175.626 20.9273 175.4 20.7367C175.174 20.5287 174.896 20.3553 174.566 20.2167C174.253 20.078 173.836 20.0087 173.314 20.0087C172.654 20.0087 172.149 20.156 171.802 20.4507C171.454 20.728 171.28 21.0833 171.28 21.5167C171.28 21.8113 171.358 22.0713 171.515 22.2967C171.689 22.5047 172.028 22.704 172.532 22.8947C173.036 23.0853 173.801 23.2847 174.826 23.4927C175.991 23.7007 176.912 24.0127 177.59 24.4287C178.286 24.8273 178.772 25.2953 179.051 25.8327C179.346 26.3527 179.494 26.9333 179.494 27.5747C179.494 28.3547 179.259 29.0567 178.79 29.6807C178.338 30.3047 177.66 30.7987 176.756 31.1627C175.869 31.5093 174.766 31.6827 173.444 31.6827Z" fill="white"/>
<path d="M185.629 30.8767C186.341 31.2407 187.219 31.4227 188.262 31.4227H190.374C190.548 31.4227 190.696 31.362 190.817 31.2407C190.939 31.1193 191 30.972 191 30.7987V29.1867C191 29.0133 190.939 28.866 190.817 28.7447C190.696 28.6233 190.548 28.5627 190.374 28.5627H188.575C187.949 28.5627 187.506 28.3633 187.245 27.9647C187.002 27.566 186.88 27.0113 186.88 26.3007V20.6587H190.139C190.313 20.6587 190.461 20.598 190.583 20.4767C190.704 20.3553 190.765 20.1993 190.765 20.0087V18.5267C190.765 18.3533 190.704 18.206 190.583 18.0847C190.461 17.9633 190.313 17.9027 190.139 17.9027H186.88V13.5867C186.88 13.4133 186.819 13.266 186.698 13.1447C186.576 13.0233 186.428 12.9627 186.254 12.9627H184.142C183.951 12.9627 183.795 13.0233 183.673 13.1447C183.569 13.266 183.516 13.4133 183.516 13.5867V17.9027H181.457C181.283 17.9027 181.135 17.9633 181.013 18.0847C180.892 18.206 180.831 18.3533 180.831 18.5267V20.0087C180.831 20.1993 180.892 20.3553 181.013 20.4767C181.135 20.598 181.283 20.6587 181.457 20.6587H183.516V26.5607C183.516 27.6353 183.69 28.5367 184.038 29.2647C184.386 29.9753 184.916 30.5127 185.629 30.8767Z" fill="white"/>
</svg>
